<?xml version="1.0" standalone="no"?>
<!DOCTYPE svg PUBLIC "-//W3C//DTD SVG 20010904//EN"
 "http://www.w3.org/TR/2001/REC-SVG-20010904/DTD/svg10.dtd">
<svg version="1.0" xmlns="http://www.w3.org/2000/svg"
 width="582.000000pt" height="621.000000pt" viewBox="0 0 582.000000 621.000000"
 preserveAspectRatio="xMidYMid meet">

<g transform="translate(0.000000,621.000000) scale(0.100000,-0.100000)"
fill="currentColor" stroke="none">
<path d="M0 3105 l0 -3105 2910 0 2910 0 0 3105 0 3105 -2910 0 -2910 0 0
-3105z m1420 2200 l0 -615 -570 0 -570 0 0 615 0 615 570 0 570 0 0 -615z
m1930 -5 c0 -448 3 -626 12 -645 12 -27 34 -32 59 -12 14 10 65 110 89 172 4
11 17 40 29 63 11 24 21 48 21 53 0 4 11 32 24 61 32 70 146 339 146 344 0 2
14 33 30 69 17 36 30 68 30 71 0 3 13 33 29 67 16 34 36 79 45 100 30 69 48
112 56 132 4 11 17 40 28 65 11 25 23 53 26 63 5 16 53 17 821 17 773 0 815
-1 805 -17 -14 -27 -101 -218 -160 -353 -18 -41 -63 -138 -100 -215 -37 -77
-75 -158 -85 -180 -10 -22 -37 -80 -60 -130 -23 -49 -49 -106 -58 -125 -9 -19
-34 -75 -56 -123 -23 -49 -41 -90 -41 -92 0 -2 -25 -55 -55 -119 -30 -63 -55
-118 -55 -121 0 -7 -25 -60 -132 -285 -38 -80 -74 -156 -80 -170 -6 -14 -21
-45 -33 -70 -13 -25 -34 -72 -48 -105 -14 -33 -51 -114 -82 -180 -31 -66 -60
-129 -65 -140 -30 -71 -46 -109 -77 -175 -19 -41 -39 -83 -44 -92 -16 -31 -10
-93 15 -144 24 -51 57 -124 83 -184 8 -19 23 -53 33 -75 10 -22 25 -56 33 -75
21 -48 54 -124 84 -190 14 -30 33 -73 43 -95 10 -22 34 -75 54 -118 20 -42 36
-79 36 -82 0 -3 18 -44 40 -91 22 -47 40 -89 40 -93 0 -4 11 -29 24 -57 13
-27 31 -67 41 -89 10 -22 30 -68 46 -102 16 -34 29 -64 29 -67 0 -3 16 -41 36
-83 20 -43 47 -104 60 -136 14 -32 40 -91 59 -132 19 -41 35 -77 35 -80 0 -4
13 -34 29 -68 66 -143 141 -305 171 -372 32 -71 140 -326 140 -330 0 -4 71
-158 96 -209 8 -16 14 -35 14 -43 0 -7 5 -13 10 -13 6 0 10 -5 10 -10 0 -7
-283 -9 -842 -8 l-842 3 -47 92 c-25 50 -55 104 -66 120 -11 15 -26 43 -34 61
-8 17 -17 32 -21 32 -5 0 -8 7 -8 16 0 9 -52 118 -116 243 -64 124 -161 314
-216 423 -102 201 -118 220 -155 193 -17 -13 -18 -49 -22 -599 l-3 -586 -769
0 -769 0 0 2820 0 2820 815 0 815 0 0 -620z"/>
</g>
</svg>
